<svg width="67" height="59" viewBox="0 0 67 59" fill="none" xmlns="http://www.w3.org/2000/svg">
<g clip-path="url(#clip0_274_124)">
<path d="M30.5439 14.16C26.0281 10.4385 21.535 6.69423 17.0192 2.97269L18.9481 3.17692C14.2054 6.80769 9.4627 10.4612 4.72001 14.0919C3.15424 14.0919 1.58847 14.0919 0.0227051 14.0692C6.08155 9.37192 12.1404 4.69731 18.2219 0C23.8496 4.69731 29.5 9.39461 35.1277 14.1146C33.6073 14.1146 32.0642 14.16 30.5439 14.16Z" fill="#252440"/>
<path d="M6.85308 17.7681L19.8104 50.3315L16.815 49.7415L29.0688 17.7681H35.3319L17.9496 59L0.544617 17.7681H6.85308Z" fill="#252440"/>
<path d="M40.029 57.6838C37.9186 57.6838 36.0124 57.2299 34.2878 56.3222C32.5632 55.4145 31.2017 54.0757 30.1805 52.3284C29.1594 50.5584 28.6601 48.4253 28.6601 45.8838C28.6601 43.3422 29.182 41.1638 30.2486 39.3484C31.2924 37.533 32.722 36.1261 34.492 35.1503C36.262 34.1745 38.2136 33.6753 40.324 33.6753C42.4344 33.6753 44.227 34.1518 45.6794 35.1276C47.1544 36.0807 48.2436 37.2153 48.9697 38.5314L48.6521 39.3484L49.1513 34.6057H53.8259V57.1618H48.7655V51.2845L49.3555 52.6007C49.174 52.9638 48.8336 53.4176 48.3117 53.9849C47.8124 54.5522 47.1544 55.1195 46.3828 55.7095C45.6113 56.2995 44.6809 56.7761 43.637 57.1618C42.5932 57.5476 41.3905 57.7291 40.0517 57.7291L40.029 57.6838ZM41.3905 53.4857C42.6613 53.4857 43.7959 53.2588 44.817 52.7822C45.8382 52.3057 46.6778 51.6476 47.3586 50.7626C48.0394 49.9003 48.4932 48.8791 48.7428 47.7218V43.3195C48.4478 42.2303 47.9486 41.2772 47.2224 40.4603C46.4963 39.6434 45.634 39.008 44.6128 38.5541C43.5917 38.1003 42.4797 37.8734 41.2997 37.8734C39.9155 37.8734 38.6674 38.1911 37.5328 38.8491C36.3982 39.5072 35.5132 40.4149 34.8324 41.5722C34.1517 42.7295 33.834 44.0911 33.834 45.6568C33.834 47.1091 34.1744 48.4253 34.8778 49.628C35.5813 50.8307 36.489 51.7611 37.6463 52.4645C38.8036 53.1453 40.0517 53.5084 41.4132 53.5084L41.3905 53.4857Z" fill="#252440"/>
<path d="M61.7911 34.6057H66.443V57.1619H61.7911V34.6057Z" fill="#252440"/>
<path d="M44.4316 25.143C43.3651 25.143 42.4347 24.9161 41.6632 24.485C40.8916 24.0538 40.3016 23.4638 39.8705 22.715C39.4393 21.9661 39.2351 21.1038 39.2351 20.128C39.2351 19.1523 39.462 18.358 39.9385 17.6092C40.4151 16.8603 41.0505 16.2477 41.822 15.7938C42.6162 15.34 43.4785 15.113 44.4543 15.113C45.7024 15.113 46.7235 15.4761 47.5405 16.2023C48.3574 16.9284 48.9247 17.9269 49.2197 19.1977L41.4589 21.9207L40.9597 20.6727L47.2908 18.3353L46.8597 18.653C46.6782 18.1538 46.3832 17.7227 45.952 17.3596C45.5208 16.9965 44.9762 16.815 44.2955 16.815C43.7282 16.815 43.2062 16.9511 42.7751 17.2234C42.3439 17.4957 41.9808 17.8588 41.7312 18.358C41.4816 18.8346 41.3455 19.3792 41.3455 20.0146C41.3455 20.65 41.4816 21.2173 41.7312 21.7165C42.0035 22.2157 42.3666 22.6015 42.8431 22.8965C43.3197 23.1688 43.8643 23.305 44.4543 23.305C44.8628 23.305 45.2712 23.2369 45.657 23.078C46.0428 22.9192 46.4058 22.7377 46.7462 22.488L47.6993 24.0538C47.2228 24.3715 46.7008 24.6211 46.1335 24.8253C45.5435 25.0296 44.9762 25.1203 44.4316 25.1203V25.143Z" fill="#252440"/>
<path d="M53.781 15.5215L53.9626 17.6319L53.8491 17.4504C54.1895 16.7469 54.6887 16.1796 55.3468 15.7484C55.9822 15.34 56.731 15.1357 57.5933 15.1357C58.1153 15.1357 58.5691 15.2265 58.9776 15.408C59.386 15.5896 59.7264 15.8165 59.9987 16.1342C60.271 16.4519 60.4299 16.815 60.498 17.2688L60.3845 17.3596C60.7476 16.6561 61.2468 16.1342 61.9049 15.7257C62.5403 15.34 63.221 15.1584 63.9472 15.1584C64.8776 15.1584 65.6037 15.4307 66.1257 15.9527C66.6703 16.4746 66.9426 17.1554 66.988 17.9723V24.9388H64.8549V18.7438C64.8549 18.2673 64.7187 17.8588 64.5145 17.5184C64.2876 17.2007 63.9018 17.0192 63.3572 16.9965C62.8126 16.9965 62.3134 17.1554 61.9049 17.4957C61.4737 17.8134 61.1334 18.2446 60.9064 18.7665C60.6795 19.2884 60.5434 19.8557 60.5207 20.4684V24.9161H58.3876V18.7211C58.3876 18.2446 58.2514 17.8361 58.0018 17.4957C57.7749 17.178 57.3664 16.9965 56.8445 16.9738C56.2999 16.9738 55.8234 17.1327 55.3922 17.473C54.961 17.8134 54.6433 18.2219 54.3937 18.7438C54.1441 19.2657 54.0307 19.8557 54.0307 20.4684V24.8934H51.8976V15.4988H53.8264L53.781 15.5215Z" fill="#252440"/>
</g>
<defs>
<clipPath id="clip0_274_124">
<rect width="66.9423" height="59" fill="white"/>
</clipPath>
</defs>
</svg>
